<svg version="1.2" xmlns="http://www.w3.org/2000/svg" viewBox="0 0 705 531" width="705" height="531">
	<title>deti_store_logo-svg</title>
	<style>
		.s0 { fill: #65de4a;stroke: #000000;stroke-miterlimit:100;stroke-width: 6 } 
		.s1 { fill: #000000 } 
		.s2 { fill: none;stroke: #000000;stroke-linecap: round;stroke-linejoin: round;stroke-width: 10 } 
	</style>
	<path id="Shape 1" class="s0" d="m45.4 37.4h611.1v242.5h-611.1z"/>
	<path id="deti" fill-rule="evenodd" class="s1" d="m167.9 128.3v-69.1l15.5 2.2v183.7h-13.5l-2-18.1q-7.8 11.2-17.6 15.9-9.5 4.7-19.8 4.7-17.3 0-28.5-8.6-11.1-8.6-16.4-23.8-5.4-15.3-5.4-35.2 0-19.6 6.1-34.9 6.1-15.4 17.4-24.3 11.4-9 27.6-9 11.9 0 20.9 4.3 9 4.2 15.7 12.2zm-32.7-3.1q-18.2 0-27.9 13.8-9.6 13.8-9.6 40.8 0 17.3 3.9 29.5 4 12 11.6 18.4 7.8 6.4 19.3 6.4 12.5 0 21.1-7 8.7-7 14.3-15.3v-68q-5.7-8.9-14.3-13.8-8.4-4.8-18.4-4.8zm202.9 60.7h-89q0.4 16.4 5.9 27 5.6 10.5 14.7 15.4 9.1 5 19.8 5 10.3 0 18.3-3 8.1-2.9 17-9l8 11.5q-9.1 7-20.6 10.8-11.2 4-22.1 4-18 0-31-8.6-12.9-8.5-19.6-23.6-6.9-15.4-6.9-35.7 0-19.8 7-35.1 6.9-15.4 19.3-24 12.4-8.8 28.9-8.8 15.9 0 27.2 7.8 11.4 7.7 17.3 21.9 6.1 14.1 6.1 33.7 0 3.3-0.1 6.1-0.1 2.6-0.2 4.6zm-50-59.6q-15.8 0-26.6 11.3-10.8 11.2-12.1 34.3h74.3q-0.5-23-10.3-34.2-9.9-11.4-25.3-11.4zm192.4 101.4l6.7 11.1q-6.6 4.3-15.7 6.5-9.3 2.3-17.2 2.3-19.6 0-30.8-10.6-11.1-10.4-11.1-26.3v-83.5h-30.8v-13h30.8v-30.1l15.5-1.9v32h46.1l-2.2 13h-43.9v83.1q0 11.4 6.1 17.6 6.2 6.2 20.7 6.2 7.5 0 13.9-1.8 6.3-1.8 11.9-4.6zm63-113.5h55.4v117.4h38.1v13.5h-94.9v-13.5h41.5v-103.9h-40.1zm40.9-59.2q5.9 0 9.5 3.7 3.4 3.6 3.4 8.7 0 5.4-3.4 9.1-3.6 3.7-9.5 3.7-5.6 0-9.1-3.7-3.5-3.7-3.5-9.1 0-5.1 3.5-8.7 3.5-3.7 9.1-3.7z"/>
	<path id="STORE" fill-rule="evenodd" class="s1" d="m114.8 495.9q-17.1 0-29.4-4.9-12-4.8-18.5-17.1-6.4-12.3-6.4-34.6v-11.4q10 0 19.7 0 9.7 0 19.4 0v14.6q0 12 2 18.4 1.9 6.2 5.5 8.8 3.5 2.2 8.4 2.2 7.4 0 11.6-5.2 4.6-5.4 4.6-21 0-11.9-3.9-17.8-3.6-6.1-11.7-9.6-8-4-20.7-9.4-11.3-4.9-18.7-11.7-7.5-6.8-11-17.1-3.5-10.3-3.5-25.2 0-18.8 4.7-30.5 5.2-11.6 16.9-16.8 11.9-5.4 32-5.4 25.9 0 39.5 11.2 13.9 11 13.9 33.3v23.1q-9.4 0-18.8 0-9.1 0-18.7 0v-11.7q0-14.5-3.6-20.4-3.2-5.8-12-5.8-8.4 0-12 5.2-3.5 5.1-3.5 16.8 0 10.6 4.2 16.8 4.5 5.9 11.3 9 6.8 3 14.6 5.9 14.2 5.5 23.3 11.3 9 5.5 13.3 15.5 4.2 9.8 4.2 28.1 0 20.8-7.2 33-6.8 12-19.7 17.2-12.6 5.2-29.8 5.2zm134.6-2.3h-37.5v-164.7h-29.8v-26.5h97v26.5h-29.7zm94.8 4q-15.9 0-27.9-3.6-11.9-3.9-18.7-15.6-6.5-11.9-6.5-35.2v-100.3q0-17.1 6.5-26.5 6.8-9.3 18.7-12.9 12.4-3.9 28.2-3.9 15.6 0 27.5 3.9 12.2 3.8 19 13.2 7.2 9.4 7.2 26.2v100q0 23.6-7.2 35.5-6.8 11.7-19 15.6-11.9 3.6-27.8 3.6zm0-22q4.9 0 8.4-1.7 3.8-1.6 5.8-5.4 2.2-4.2 2.2-11.4v-115.8q0-7.1-2.2-11-2-4.2-5.8-5.7-3.5-1.7-8.4-1.7-4.9 0-8.4 1.7-3.6 1.5-5.9 5.7-1.9 3.9-1.9 11v115.8q0 7.2 1.9 11.4 2.3 3.8 5.9 5.4 3.5 1.7 8.4 1.7zm118 18h-39.1v-191h69.9q19 0 28.8 8.7 9.6 8.4 9.6 23.6v29.7q0 15.2-8 25.6-8.1 10.3-25.3 11.9 11 1.6 15.5 7.5 4.9 5.5 8.5 18l18.1 66h-41.8l-13.8-63.3q-2-7.8-4.6-13-2.2-5.4-6.8-5.4h-11zm0-170.8v62.7h15.6q9 0 12.9-4.9 3.9-5.1 3.9-16.1v-23q0-10.3-3.6-14.5-3.6-4.2-11-4.2zm184.7 170.8h-87.9v-191.2h87.9v26.5h-48.8v51.2h41.4v29.3h-41.4v58.3h48.8z"/>
	<path id="Shape 2" class="s2" d="m14 11h675.8v507.1h-675.8z"/>
</svg>